<svg width="100" height="100" viewBox="0 0 100 100" fill="none" xmlns="http://www.w3.org/2000/svg">
<rect width="100" height="100" rx="50" fill="#111111"/>
<path d="M48.0909 72H33.304V28.3636H48.3892C52.7216 28.3636 56.4432 29.2372 59.554 30.9844C62.679 32.7173 65.0795 35.2102 66.7557 38.4631C68.4318 41.7159 69.2699 45.608 69.2699 50.1392C69.2699 54.6847 68.4247 58.5909 66.7344 61.858C65.0582 65.125 62.6364 67.6321 59.4688 69.3793C56.3153 71.1264 52.5227 72 48.0909 72ZM41.2088 65.1605H47.7074C50.7472 65.1605 53.2827 64.6065 55.3139 63.4986C57.3452 62.3764 58.8722 60.7074 59.8949 58.4915C60.9176 56.2614 61.429 53.4773 61.429 50.1392C61.429 46.8011 60.9176 44.0312 59.8949 41.8295C58.8722 39.6136 57.3594 37.9588 55.3565 36.8651C53.3679 35.7571 50.8963 35.2031 47.9418 35.2031H41.2088V65.1605Z" fill="#EEEEEE"/>
</svg>
